<svg id="visual" viewBox="0 0 900 600" width="900" height="600" xmlns="http://www.w3.org/2000/svg" xmlns:xlink="http://www.w3.org/1999/xlink" version="1.1"><g stroke-width="1" stroke-linejoin="bevel"><path d="M478 269L519 172L433 179Z" fill="#00101c" stroke="#00101c"></path><path d="M519 172L485 106L433 179Z" fill="#081a28" stroke="#081a28"></path><path d="M485 106L434 89L433 179Z" fill="#112e42" stroke="#112e42"></path><path d="M332 178L376 303L433 179Z" fill="#0c2435" stroke="#0c2435"></path><path d="M433 179L376 303L478 269Z" fill="#1d4e6b" stroke="#1d4e6b"></path><path d="M434 89L332 178L433 179Z" fill="#246688" stroke="#246688"></path><path d="M637 261L625 165L519 172Z" fill="#1d4e6b" stroke="#1d4e6b"></path><path d="M519 172L589 80L485 106Z" fill="#1d4e6b" stroke="#1d4e6b"></path><path d="M419 373L523 360L478 269Z" fill="#205a7a" stroke="#205a7a"></path><path d="M478 269L637 261L519 172Z" fill="#205a7a" stroke="#205a7a"></path><path d="M523 360L637 261L478 269Z" fill="#205a7a" stroke="#205a7a"></path><path d="M376 303L419 373L478 269Z" fill="#1d4e6b" stroke="#1d4e6b"></path><path d="M625 165L589 80L519 172Z" fill="#205a7a" stroke="#205a7a"></path><path d="M485 106L478 0L434 89Z" fill="#297ea6" stroke="#297ea6"></path><path d="M434 89L312 102L332 178Z" fill="#246688" stroke="#246688"></path><path d="M562 0L478 0L485 106Z" fill="#19435d" stroke="#19435d"></path><path d="M434 89L373 0L312 102Z" fill="#205a7a" stroke="#205a7a"></path><path d="M719 436L699 269L637 261Z" fill="#081a28" stroke="#081a28"></path><path d="M637 261L726 186L625 165Z" fill="#0c2435" stroke="#0c2435"></path><path d="M625 165L725 91L589 80Z" fill="#00101c" stroke="#00101c"></path><path d="M589 80L562 0L485 106Z" fill="#19435d" stroke="#19435d"></path><path d="M672 0L562 0L589 80Z" fill="#15384f" stroke="#15384f"></path><path d="M478 0L373 0L434 89Z" fill="#277297" stroke="#277297"></path><path d="M194 179L263 330L332 178Z" fill="#19435d" stroke="#19435d"></path><path d="M332 178L263 330L376 303Z" fill="#246688" stroke="#246688"></path><path d="M376 303L298 422L419 373Z" fill="#277297" stroke="#277297"></path><path d="M699 269L726 186L637 261Z" fill="#0c2435" stroke="#0c2435"></path><path d="M464 469L582 439L523 360Z" fill="#0c2435" stroke="#0c2435"></path><path d="M523 360L582 439L637 261Z" fill="#19435d" stroke="#19435d"></path><path d="M464 469L523 360L419 373Z" fill="#205a7a" stroke="#205a7a"></path><path d="M436 492L464 469L419 373Z" fill="#19435d" stroke="#19435d"></path><path d="M373 0L312 0L312 102Z" fill="#0c2435" stroke="#0c2435"></path><path d="M312 102L194 179L332 178Z" fill="#205a7a" stroke="#205a7a"></path><path d="M726 186L725 91L625 165Z" fill="#297ea6" stroke="#297ea6"></path><path d="M263 330L298 422L376 303Z" fill="#00101c" stroke="#00101c"></path><path d="M298 422L436 492L419 373Z" fill="#1d4e6b" stroke="#1d4e6b"></path><path d="M630 512L674 477L582 439Z" fill="#1d4e6b" stroke="#1d4e6b"></path><path d="M725 91L672 0L589 80Z" fill="#081a28" stroke="#081a28"></path><path d="M218 85L194 179L312 102Z" fill="#15384f" stroke="#15384f"></path><path d="M263 330L201 381L298 422Z" fill="#112e42" stroke="#112e42"></path><path d="M312 0L218 85L312 102Z" fill="#19435d" stroke="#19435d"></path><path d="M161 332L201 381L263 330Z" fill="#112e42" stroke="#112e42"></path><path d="M298 422L280 484L436 492Z" fill="#081a28" stroke="#081a28"></path><path d="M674 477L719 436L582 439Z" fill="#0c2435" stroke="#0c2435"></path><path d="M582 439L719 436L637 261Z" fill="#205a7a" stroke="#205a7a"></path><path d="M699 269L820 239L726 186Z" fill="#081a28" stroke="#081a28"></path><path d="M630 512L582 439L536 600Z" fill="#205a7a" stroke="#205a7a"></path><path d="M312 0L222 0L218 85Z" fill="#15384f" stroke="#15384f"></path><path d="M218 85L106 135L194 179Z" fill="#081a28" stroke="#081a28"></path><path d="M536 600L582 439L464 469Z" fill="#081a28" stroke="#081a28"></path><path d="M201 381L280 484L298 422Z" fill="#0c2435" stroke="#0c2435"></path><path d="M436 492L536 600L464 469Z" fill="#15384f" stroke="#15384f"></path><path d="M719 436L783 362L699 269Z" fill="#081a28" stroke="#081a28"></path><path d="M726 186L807 73L725 91Z" fill="#0c2435" stroke="#0c2435"></path><path d="M194 179L161 332L263 330Z" fill="#112e42" stroke="#112e42"></path><path d="M201 381L172 526L280 484Z" fill="#0c2435" stroke="#0c2435"></path><path d="M96 189L161 332L194 179Z" fill="#246688" stroke="#246688"></path><path d="M783 362L800 329L699 269Z" fill="#0c2435" stroke="#0c2435"></path><path d="M800 329L820 239L699 269Z" fill="#0c2435" stroke="#0c2435"></path><path d="M725 91L788 0L672 0Z" fill="#297ea6" stroke="#297ea6"></path><path d="M820 239L807 73L726 186Z" fill="#081a28" stroke="#081a28"></path><path d="M807 73L788 0L725 91Z" fill="#112e42" stroke="#112e42"></path><path d="M128 0L106 135L218 85Z" fill="#246688" stroke="#246688"></path><path d="M106 135L96 189L194 179Z" fill="#246688" stroke="#246688"></path><path d="M412 600L536 600L436 492Z" fill="#246688" stroke="#246688"></path><path d="M671 600L770 498L674 477Z" fill="#246688" stroke="#246688"></path><path d="M325 600L412 600L436 492Z" fill="#246688" stroke="#246688"></path><path d="M69 293L106 377L161 332Z" fill="#1d4e6b" stroke="#1d4e6b"></path><path d="M161 332L106 377L201 381Z" fill="#297ea6" stroke="#297ea6"></path><path d="M280 484L325 600L436 492Z" fill="#15384f" stroke="#15384f"></path><path d="M900 373L900 267L800 329Z" fill="#277297" stroke="#277297"></path><path d="M900 267L900 175L820 239Z" fill="#19435d" stroke="#19435d"></path><path d="M719 436L770 498L783 362Z" fill="#246688" stroke="#246688"></path><path d="M674 477L770 498L719 436Z" fill="#00101c" stroke="#00101c"></path><path d="M671 600L674 477L630 512Z" fill="#0c2435" stroke="#0c2435"></path><path d="M0 196L69 293L96 189Z" fill="#112e42" stroke="#112e42"></path><path d="M222 0L128 0L218 85Z" fill="#246688" stroke="#246688"></path><path d="M536 600L619 600L630 512Z" fill="#00101c" stroke="#00101c"></path><path d="M172 526L325 600L280 484Z" fill="#19435d" stroke="#19435d"></path><path d="M96 189L69 293L161 332Z" fill="#00101c" stroke="#00101c"></path><path d="M0 196L96 189L0 138Z" fill="#297ea6" stroke="#297ea6"></path><path d="M900 267L820 239L800 329Z" fill="#00101c" stroke="#00101c"></path><path d="M820 239L900 175L807 73Z" fill="#0c2435" stroke="#0c2435"></path><path d="M807 73L900 0L788 0Z" fill="#19435d" stroke="#19435d"></path><path d="M900 373L800 329L783 362Z" fill="#205a7a" stroke="#205a7a"></path><path d="M619 600L671 600L630 512Z" fill="#081a28" stroke="#081a28"></path><path d="M98 484L172 526L201 381Z" fill="#297ea6" stroke="#297ea6"></path><path d="M900 175L900 83L807 73Z" fill="#205a7a" stroke="#205a7a"></path><path d="M900 522L900 373L770 498Z" fill="#277297" stroke="#277297"></path><path d="M770 498L900 373L783 362Z" fill="#15384f" stroke="#15384f"></path><path d="M0 420L98 484L106 377Z" fill="#277297" stroke="#277297"></path><path d="M106 377L98 484L201 381Z" fill="#19435d" stroke="#19435d"></path><path d="M900 83L900 0L807 73Z" fill="#15384f" stroke="#15384f"></path><path d="M0 138L96 189L106 135Z" fill="#00101c" stroke="#00101c"></path><path d="M69 293L0 420L106 377Z" fill="#19435d" stroke="#19435d"></path><path d="M0 196L0 286L69 293Z" fill="#1d4e6b" stroke="#1d4e6b"></path><path d="M0 0L0 138L106 135Z" fill="#081a28" stroke="#081a28"></path><path d="M128 600L161 600L172 526Z" fill="#15384f" stroke="#15384f"></path><path d="M172 526L161 600L325 600Z" fill="#277297" stroke="#277297"></path><path d="M671 600L810 600L770 498Z" fill="#1d4e6b" stroke="#1d4e6b"></path><path d="M0 286L0 420L69 293Z" fill="#246688" stroke="#246688"></path><path d="M98 484L128 600L172 526Z" fill="#1d4e6b" stroke="#1d4e6b"></path><path d="M810 600L900 522L770 498Z" fill="#15384f" stroke="#15384f"></path><path d="M0 600L128 600L98 484Z" fill="#081a28" stroke="#081a28"></path><path d="M128 0L0 0L106 135Z" fill="#277297" stroke="#277297"></path><path d="M0 420L0 500L98 484Z" fill="#277297" stroke="#277297"></path><path d="M810 600L900 600L900 522Z" fill="#277297" stroke="#277297"></path><path d="M0 500L0 600L98 484Z" fill="#0c2435" stroke="#0c2435"></path></g></svg>